<?xml version="1.0" standalone="no"?>
<!DOCTYPE svg PUBLIC "-//W3C//DTD SVG 20010904//EN"
 "http://www.w3.org/TR/2001/REC-SVG-20010904/DTD/svg10.dtd">
<svg version="1.0" xmlns="http://www.w3.org/2000/svg"
 width="626.000000pt" height="380.000000pt" viewBox="0 0 626.000000 380.000000"
 preserveAspectRatio="xMidYMid meet">

<g transform="translate(0.000000,380.000000) scale(0.100000,-0.100000)"
fill="#000000" stroke="none">
<path d="M1189 3591 l-57 -6 85 -90 c96 -103 183 -227 183 -262 0 -77 -234
-413 -525 -753 -45 -52 -103 -124 -131 -160 -52 -69 -123 -140 -244 -243 -119
-101 -249 -263 -270 -338 -13 -45 11 -145 56 -234 46 -91 76 -129 113 -145 26
-10 31 -19 36 -59 10 -71 12 -75 65 -128 135 -136 419 -214 622 -172 100 21
157 61 310 218 193 198 183 194 424 185 297 -11 507 26 692 120 144 74 315
237 379 364 60 116 76 186 76 327 0 138 -21 211 -79 275 -30 33 -107 71 -119
58 -3 -3 11 -32 30 -64 56 -93 79 -181 79 -299 -1 -76 -6 -115 -23 -164 -85
-244 -354 -442 -691 -507 -71 -13 -122 -15 -306 -9 -243 7 -322 -1 -383 -40
-21 -12 -80 -74 -133 -137 -100 -120 -163 -173 -245 -210 -64 -29 -194 -31
-273 -4 -72 25 -302 143 -312 161 -5 8 -2 33 7 57 21 61 19 75 -12 81 -72 14
-144 94 -189 207 l-28 71 20 37 c17 32 142 181 204 242 59 59 412 444 496 540
136 158 190 229 306 405 144 218 151 231 151 291 1 46 -3 57 -43 108 -72 91
-110 147 -110 162 0 11 36 14 198 14 199 -1 308 -7 617 -35 662 -61 834 -61
1223 3 61 10 114 16 117 14 20 -20 -12 -236 -50 -341 -31 -84 -31 -90 -2 -63
30 28 128 76 202 98 63 19 166 22 520 15 171 -3 244 9 345 58 55 26 60 26 60
-1 0 -43 -50 -130 -110 -192 -61 -63 -73 -73 -280 -210 -112 -74 -151 -104
-179 -139 -12 -15 -11 -16 15 -7 57 19 221 40 314 40 118 0 283 -20 555 -65
281 -46 386 -58 535 -58 108 0 248 17 328 39 31 9 28 -8 -10 -64 -77 -113
-196 -200 -353 -260 -86 -33 -188 -44 -485 -52 -168 -5 -321 -13 -340 -18
l-35 -8 69 -24 c102 -34 290 -133 456 -240 230 -148 397 -248 505 -301 102
-50 247 -101 323 -114 23 -4 42 -9 42 -12 0 -17 -72 -100 -118 -134 -159 -121
-382 -171 -656 -149 -72 5 -156 15 -186 20 -30 5 -149 28 -265 49 -479 91
-653 106 -906 81 -366 -37 -696 -178 -879 -375 l-35 -38 60 43 c77 56 224 134
313 165 214 75 371 98 672 99 273 1 352 -8 765 -89 149 -28 308 -58 355 -65
122 -19 347 -17 446 4 230 48 427 163 488 285 29 58 46 135 46 211 0 62 -9 73
-39 46 -114 -97 -434 19 -743 271 -71 58 -188 178 -188 193 0 4 33 6 73 3 352
-26 677 203 849 598 69 159 69 158 14 116 -59 -45 -166 -97 -276 -134 -83 -27
-90 -28 -300 -27 -197 0 -231 3 -400 33 -211 37 -409 68 -493 76 l-57 6 59 72
c60 75 99 143 128 224 20 59 23 200 4 264 l-13 46 -46 -46 c-52 -52 -107 -81
-203 -107 -56 -16 -103 -18 -371 -16 -248 2 -321 0 -383 -13 -42 -9 -80 -14
-83 -10 -3 3 0 61 6 128 12 117 15 207 9 207 -2 0 -26 -7 -53 -14 -146 -43
-373 -67 -645 -67 -238 0 -312 5 -759 46 -449 42 -759 54 -931 36z"/>
<path d="M1572 2576 c-22 -24 -43 -57 -47 -74 -3 -18 -18 -41 -32 -52 -27 -21
-93 -28 -93 -9 0 20 21 49 32 43 7 -4 6 -9 -3 -15 -19 -11 15 -24 39 -14 15 6
15 8 -7 26 -21 17 -21 19 -5 19 17 1 17 2 2 10 -27 16 -67 -6 -83 -45 -18 -42
-20 -84 -4 -68 8 8 23 7 55 -4 62 -21 91 -12 103 35 6 20 11 49 11 64 0 17 15
44 40 73 38 43 45 55 36 55 -2 0 -22 -20 -44 -44z"/>
<path d="M1399 2590 c-20 -10 -50 -35 -67 -55 -26 -28 -32 -44 -31 -78 0 -47
12 -86 22 -71 3 6 2 16 -4 24 -14 24 -10 73 8 100 27 39 38 48 90 75 26 13 41
24 33 24 -8 0 -31 -8 -51 -19z"/>
<path d="M2214 950 c-42 -17 -54 -48 -54 -143 0 -80 2 -90 25 -112 28 -29 61
-32 93 -9 12 8 22 10 22 5 0 -6 9 -11 20 -11 18 0 20 7 20 70 l0 70 -40 0
c-33 0 -40 -3 -40 -19 0 -11 5 -21 12 -23 19 -7 1 -58 -21 -58 -20 0 -31 34
-31 95 0 60 11 95 31 95 10 0 21 -9 24 -20 8 -25 65 -29 65 -4 0 28 -19 52
-51 63 -37 13 -46 13 -75 1z"/>
<path d="M2603 946 c-36 -17 -53 -60 -53 -141 0 -71 26 -118 72 -129 47 -12
93 6 106 42 28 73 19 183 -17 216 -25 23 -71 28 -108 12z m61 -42 c12 -11 16
-35 16 -87 0 -80 -8 -101 -36 -95 -33 6 -31 198 2 198 1 0 10 -7 18 -16z"/>
<path d="M3553 949 c-39 -11 -55 -53 -54 -144 0 -84 20 -122 66 -131 65 -12
115 23 115 80 0 22 -5 26 -29 26 -24 0 -30 -5 -34 -30 -9 -42 -42 -41 -51 1
-15 77 -2 159 25 159 12 0 21 -10 25 -25 5 -19 13 -25 35 -25 31 0 36 12 20
53 -9 23 -24 32 -71 42 -8 2 -29 -1 -47 -6z"/>
<path d="M3764 950 c-42 -17 -54 -49 -54 -138 0 -79 2 -85 29 -113 19 -18 40
-29 58 -29 69 1 102 48 102 145 0 114 -54 168 -135 135z m66 -134 c0 -82 -10
-109 -36 -99 -19 7 -20 189 -1 196 27 10 37 -16 37 -97z"/>
<path d="M4204 946 c-34 -15 -44 -32 -44 -77 0 -34 26 -63 75 -83 27 -12 35
-21 35 -40 0 -19 -5 -26 -20 -26 -11 0 -23 7 -26 15 -4 9 -19 15 -35 15 -24 0
-29 -4 -29 -25 0 -50 89 -71 148 -35 26 16 32 26 32 54 0 52 -8 65 -60 91 -52
26 -62 40 -48 67 9 20 38 13 38 -8 0 -9 11 -14 30 -14 22 0 30 5 30 18 0 25
-12 39 -43 51 -36 14 -45 13 -83 -3z"/>
<path d="M5404 950 c-41 -16 -54 -49 -54 -133 0 -98 16 -133 65 -143 65 -12
115 23 115 80 0 22 -5 26 -29 26 -25 0 -30 -4 -33 -27 -2 -20 -9 -29 -25 -31
-22 -3 -23 -1 -23 86 0 68 4 93 15 102 13 11 17 8 28 -19 9 -24 17 -31 39 -31
22 0 28 5 28 21 0 33 -17 56 -51 68 -37 13 -46 13 -75 1z"/>
<path d="M5913 953 c-51 -10 -71 -95 -33 -133 11 -11 35 -26 55 -34 27 -12 35
-21 35 -40 0 -19 -5 -26 -20 -26 -11 0 -23 7 -26 15 -4 9 -19 15 -35 15 -24 0
-29 -4 -29 -25 0 -55 123 -74 162 -25 21 26 24 79 6 103 -7 9 -33 27 -58 39
-50 26 -62 61 -22 66 15 2 22 -2 22 -12 0 -11 9 -16 30 -16 22 0 30 5 30 18 0
39 -61 67 -117 55z"/>
<path d="M220 815 l0 -135 86 0 c83 0 85 1 82 23 -3 19 -10 22 -50 25 -46 3
-48 5 -48 33 0 27 2 29 39 29 44 0 57 11 42 37 -6 12 -22 18 -43 18 -29 0 -33
4 -36 28 -3 26 -2 27 42 27 42 0 46 2 46 25 0 25 -1 25 -80 25 l-80 0 0 -135z"/>
<path d="M420 816 l0 -136 30 0 29 0 3 98 3 97 19 -97 c17 -90 20 -98 42 -98
26 0 28 5 44 109 15 92 30 77 30 -31 l0 -78 30 0 30 0 0 135 0 135 -49 0 c-55
0 -55 0 -67 -85 -10 -73 -21 -88 -29 -40 -22 131 -15 120 -68 123 l-47 3 0
-135z"/>
<path d="M710 815 l0 -135 30 0 30 0 1 73 c1 92 13 129 23 69 18 -118 27 -142
50 -142 20 0 24 9 42 93 l19 92 3 -92 3 -93 29 0 30 0 0 136 0 135 -47 -3 -47
-3 -15 -79 c-16 -86 -18 -85 -41 27 l-11 57 -50 0 -49 0 0 -135z"/>
<path d="M1055 938 c-2 -7 -16 -62 -30 -122 -15 -60 -29 -115 -32 -122 -4 -10
5 -14 31 -14 30 0 37 4 42 25 5 19 13 25 35 25 22 0 30 -6 35 -25 5 -21 12
-25 40 -25 31 0 34 2 29 23 -3 12 -18 72 -33 132 l-27 110 -43 3 c-28 2 -44
-1 -47 -10z m64 -130 c1 -32 -2 -38 -20 -38 -20 0 -21 4 -15 46 3 25 9 51 13
57 9 15 21 -20 22 -65z"/>
<path d="M1230 815 l0 -135 30 0 30 0 0 77 c0 91 12 88 39 -8 17 -63 18 -64
54 -67 l37 -3 0 135 0 136 -30 0 -30 0 -1 -82 -1 -83 -26 83 -27 82 -37 0 -38
0 0 -135z"/>
<path d="M1460 837 c0 -99 3 -116 20 -134 25 -28 54 -36 96 -29 54 11 64 35
64 163 l0 113 -30 0 -30 0 0 -99 c0 -113 -4 -131 -31 -131 -18 0 -19 9 -19
115 l0 115 -35 0 -35 0 0 -113z"/>
<path d="M1680 815 l0 -135 80 0 c79 0 80 0 80 25 0 23 -4 25 -45 25 -43 0
-45 1 -45 30 0 28 2 30 40 30 36 0 40 3 40 25 0 25 -3 26 -55 29 -14 1 -21 9
-23 29 -3 26 -2 27 42 27 42 0 46 2 46 25 0 25 -1 25 -80 25 l-80 0 0 -135z"/>
<path d="M1880 815 l0 -135 75 0 c73 0 75 1 75 25 0 23 -4 25 -45 25 l-45 0 0
110 0 110 -30 0 -30 0 0 -135z"/>
<path d="M2380 815 l0 -135 75 0 c73 0 75 1 75 24 0 22 -5 25 -42 28 l-43 3
-3 108 -3 107 -29 0 -30 0 0 -135z"/>
<path d="M2780 815 l0 -135 70 0 c62 0 74 3 95 25 30 29 32 68 5 95 -19 19
-19 22 -5 43 21 30 19 63 -5 87 -16 16 -33 20 -90 20 l-70 0 0 -135z m108 83
c17 -17 15 -45 -4 -52 -32 -12 -44 -6 -44 22 0 42 22 56 48 30z m10 -132 c4
-30 -10 -46 -40 -46 -14 0 -18 9 -18 41 0 38 1 40 28 37 21 -2 28 -9 30 -32z"/>
<path d="M3045 938 c-3 -11 -32 -128 -55 -225 -8 -32 -7 -33 26 -33 28 0 35 4
40 26 5 21 11 25 38 22 23 -2 32 -8 34 -25 3 -19 10 -23 39 -23 24 0 34 4 31
13 -3 6 -18 67 -34 134 l-29 123 -43 0 c-25 0 -44 -5 -47 -12z m69 -160 c-3
-5 -14 -8 -25 -8 -15 0 -19 7 -19 35 0 19 5 46 12 61 12 26 12 25 24 -27 7
-30 10 -57 8 -61z"/>
<path d="M3220 815 l0 -135 74 0 c65 0 74 2 79 19 7 27 0 31 -45 31 l-38 0 0
110 0 110 -35 0 -35 0 0 -135z"/>
<path d="M3930 814 l0 -135 33 3 32 3 1 68 c1 37 4 70 6 73 3 2 14 -28 25 -68
19 -73 19 -73 56 -76 l37 -3 0 135 0 136 -30 0 -30 0 0 -82 c-1 -92 -7 -89
-35 15 l-17 67 -39 0 -39 0 0 -136z"/>
<path d="M4370 851 c0 -118 11 -155 50 -171 38 -16 92 -6 116 21 16 17 20 41
23 135 l3 114 -36 0 -35 0 -3 -112 c-3 -109 -4 -113 -25 -116 -23 -3 -23 -2
-23 112 l0 116 -35 0 -35 0 0 -99z"/>
<path d="M4590 815 l0 -135 80 0 c79 0 80 0 80 25 0 23 -4 25 -45 25 l-45 0 0
110 0 110 -35 0 -35 0 0 -135z"/>
<path d="M4730 925 c0 -20 5 -25 25 -25 l25 0 0 -110 0 -110 35 0 35 0 0 110
0 110 25 0 c20 0 25 5 25 25 0 25 -1 25 -85 25 -84 0 -85 0 -85 -25z"/>
<path d="M4945 928 c-3 -13 -18 -74 -33 -136 l-28 -113 35 3 c29 2 37 8 39 26
3 19 9 23 35 20 24 -2 33 -8 35 -25 3 -19 10 -23 38 -23 19 0 34 3 34 6 0 4
-14 65 -32 135 l-32 129 -43 0 c-36 0 -43 -3 -48 -22z m64 -120 c1 -22 -4 -28
-20 -28 -15 0 -19 5 -16 18 3 9 9 35 13 57 l7 40 7 -30 c4 -16 8 -42 9 -57z"/>
<path d="M5120 815 l0 -135 30 0 30 0 0 69 c0 82 14 100 30 39 27 -105 29
-108 66 -108 l34 0 0 135 0 135 -30 0 -30 0 -1 -82 c-1 -88 -3 -87 -34 25 -16
57 -16 57 -56 57 l-39 0 0 -135z"/>
<path d="M5567 943 c-4 -3 -7 -64 -7 -135 l0 -128 35 0 35 0 0 135 0 135 -28
0 c-16 0 -32 -3 -35 -7z"/>
<path d="M5670 815 l0 -135 80 0 c79 0 80 0 80 25 0 23 -3 25 -50 25 -49 0
-50 1 -50 30 0 29 2 30 45 30 41 0 45 2 45 25 0 14 -6 25 -12 26 -7 1 -26 2
-43 3 -25 1 -31 6 -33 28 -3 26 -1 27 45 30 40 3 48 6 48 23 0 18 -8 20 -77
23 l-78 3 0 -136z"/>
<path d="M242 418 c-6 -6 -12 -25 -12 -40 0 -24 7 -32 45 -48 47 -20 53 -28
33 -48 -17 -17 -47 -15 -54 3 -9 23 -33 19 -27 -5 11 -42 92 -40 107 3 13 36
0 57 -45 72 -23 8 -34 18 -34 31 0 25 35 31 52 8 16 -22 31 -9 17 14 -13 21
-65 27 -82 10z"/>
<path d="M586 405 c-23 -35 -21 -106 4 -133 24 -26 72 -29 94 -7 32 33 32 110
-2 148 -23 26 -76 22 -96 -8z m75 -5 c15 -8 19 -21 19 -58 0 -50 -12 -72 -41
-72 -23 0 -49 37 -49 70 0 28 25 70 41 70 6 0 19 -5 30 -10z"/>
<path d="M960 415 c-21 -25 -24 -98 -6 -133 14 -27 22 -32 51 -32 28 0 38 5
47 25 16 35 3 43 -21 14 -16 -19 -23 -22 -37 -13 -23 13 -34 56 -25 91 4 14
15 31 25 37 14 9 21 6 36 -11 10 -13 21 -23 24 -23 11 0 6 36 -6 48 -17 17
-73 15 -88 -3z"/>
<path d="M1300 340 c0 -73 3 -90 15 -90 12 0 15 17 15 90 0 73 -3 90 -15 90
-12 0 -15 -17 -15 -90z"/>
<path d="M1582 352 c-12 -43 -22 -84 -22 -90 0 -20 18 -14 25 8 5 14 15 20 37
20 21 0 31 -6 35 -20 3 -11 12 -20 20 -20 8 0 13 6 10 13 -2 6 -14 47 -27 90
-31 103 -48 103 -78 -1z m57 -19 c1 -7 -8 -13 -19 -13 -19 0 -19 3 -4 48 6 15
7 15 14 -3 5 -11 9 -26 9 -32z"/>
<path d="M1920 340 l0 -90 50 0 c38 0 50 4 50 15 0 10 -11 15 -35 15 l-35 0 0
75 c0 60 -3 75 -15 75 -12 0 -15 -17 -15 -90z"/>
<path d="M2490 339 c0 -68 3 -90 13 -86 11 3 13 9 16 48 1 20 35 31 50 16 6
-6 11 -24 11 -39 0 -19 5 -28 16 -28 13 0 15 7 10 38 -8 49 -8 52 0 86 9 38
-15 56 -73 56 l-43 0 0 -91z m98 44 c2 -14 -4 -26 -18 -33 -29 -16 -60 -4 -60
24 0 31 9 37 45 34 22 -2 31 -9 33 -25z"/>
<path d="M2850 340 l0 -90 56 0 c67 0 72 23 6 28 -37 3 -42 6 -42 28 0 21 4
24 40 24 29 0 40 4 40 15 0 11 -11 15 -40 15 -33 0 -40 3 -40 20 0 17 7 20 40
20 29 0 40 4 40 15 0 11 -12 15 -50 15 l-50 0 0 -90z"/>
<path d="M3190 339 c0 -68 3 -90 13 -87 7 3 13 26 15 54 4 74 7 74 37 7 41
-91 55 -84 55 27 0 53 -4 90 -10 90 -5 0 -10 -25 -10 -55 0 -30 -5 -55 -10
-55 -6 0 -21 25 -35 55 -14 33 -30 55 -39 55 -13 0 -16 -15 -16 -91z"/>
<path d="M3580 388 c-6 -24 -18 -63 -25 -87 -18 -54 -18 -51 -1 -51 7 0 16 9
19 20 7 28 63 28 72 0 7 -22 25 -27 25 -7 0 6 -11 46 -23 87 -28 91 -50 103
-67 38z m45 -45 c5 -19 2 -23 -14 -23 -23 0 -24 3 -15 38 7 26 18 20 29 -15z"/>
<path d="M3910 340 c0 -53 4 -90 10 -90 6 0 10 37 10 90 0 53 -4 90 -10 90 -6
0 -10 -37 -10 -90z"/>
<path d="M4175 406 c-22 -33 -7 -61 40 -76 42 -14 51 -26 35 -45 -16 -19 -49
-19 -56 0 -6 16 -34 21 -34 7 0 -18 38 -42 66 -42 37 0 54 16 54 51 0 30 -12
42 -55 56 -20 6 -30 16 -30 29 0 24 42 32 51 10 6 -17 34 -22 34 -8 0 17 -37
42 -63 42 -17 0 -32 -9 -42 -24z"/>
<path d="M4520 410 c-19 -36 -5 -65 41 -83 29 -12 40 -21 37 -34 -5 -24 -35
-28 -59 -7 -24 21 -35 13 -19 -15 7 -15 20 -21 43 -21 40 0 56 10 58 35 4 44
-2 54 -43 68 -45 14 -54 33 -26 50 13 9 22 7 37 -8 24 -21 41 -12 25 13 -6 10
-27 18 -47 20 -28 2 -38 -1 -47 -18z"/>
<path d="M4881 356 c-11 -41 -24 -82 -27 -90 -4 -10 -1 -16 9 -16 8 0 17 9 20
20 7 28 63 28 72 0 7 -21 25 -28 25 -10 0 15 -37 148 -45 160 -16 26 -33 5
-54 -64z m54 -13 c5 -19 2 -23 -14 -23 -23 0 -24 3 -15 38 7 26 18 20 29 -15z"/>
<path d="M5220 340 c0 -105 18 -123 22 -22 l3 67 33 -68 c19 -40 37 -67 45
-64 8 2 13 33 15 90 3 73 1 87 -12 87 -12 0 -16 -14 -18 -62 l-3 -63 -29 63
c-42 89 -56 83 -56 -28z"/>
<path d="M5594 416 c-15 -11 -19 -27 -19 -74 0 -35 5 -66 14 -75 20 -25 76
-22 95 5 30 42 8 55 -24 16 -15 -19 -22 -21 -37 -12 -25 15 -37 63 -24 97 15
38 40 46 62 19 31 -39 52 -25 23 16 -18 26 -60 29 -90 8z"/>
<path d="M5930 340 l0 -90 55 0 c42 0 55 3 55 15 0 11 -11 15 -40 15 -36 0
-40 3 -40 25 0 22 4 25 35 25 24 0 35 5 35 15 0 10 -11 15 -35 15 -28 0 -35 4
-35 20 0 17 7 20 40 20 29 0 40 4 40 15 0 12 -13 15 -55 15 l-55 0 0 -90z"/>
</g>
</svg>
